<svg width="74" height="22" viewBox="0 0 74 22" fill="none" xmlns="http://www.w3.org/2000/svg">
<rect x="0.879883" y="0.5" width="37.9672" height="21" rx="1.5" stroke="#242323"/>
<path d="M20.3954 9.19688C20.3777 10.5899 21.6369 11.3673 22.5854 11.8295C23.5599 12.3036 23.8872 12.6078 23.8833 13.0319C23.8761 13.6808 23.106 13.9673 22.3854 13.9784C21.1282 13.9979 20.3972 13.639 19.8161 13.3675L19.3632 15.4867C19.9462 15.7554 21.0259 15.9897 22.1454 16C24.7734 16 26.4927 14.7028 26.502 12.6915C26.5123 10.1388 22.9712 9.99756 22.9954 8.85661C23.0038 8.51064 23.3339 8.14146 24.0573 8.04759C24.4153 8.00017 25.4037 7.96388 26.5244 8.47992L26.9642 6.42955C26.3615 6.21012 25.587 6 24.6227 6C22.1492 6 20.4094 7.3149 20.3954 9.19688ZM31.1905 6.17661C30.7106 6.17661 30.3062 6.45652 30.1258 6.88607L26.3718 15.8494H28.9979L29.5204 14.4052H32.7294L33.0326 15.8494H35.3471L33.3274 6.17661H31.1905ZM31.5579 8.78959L32.3157 12.4218H30.2402L31.5579 8.78959ZM17.2114 6.17673L15.1415 15.8493H17.6439L19.7129 6.17649H17.2114M13.5095 6.17649L10.9049 12.7603L9.85129 7.16236C9.72766 6.53745 9.23944 6.17661 8.69727 6.17661H4.43952L4.37988 6.45749C5.25398 6.64717 6.24711 6.95309 6.84879 7.28042C7.21701 7.48038 7.32201 7.65518 7.44298 8.13033L9.43855 15.8494H12.083L16.1373 6.17661L13.5095 6.17649Z" fill="url(#paint0_linear_144_24290)"/>
<rect x="43.8467" y="0.5" width="29.6531" height="21" rx="1.5" stroke="#242323"/>
<path d="M55.6104 5.49707H61.7353V16.5026H55.6104V5.49707Z" fill="#FF5F00"/>
<path d="M55.9995 11C55.9995 8.76392 57.0495 6.78055 58.6633 5.49718C57.4773 4.56387 55.9801 4 54.3468 4C50.4772 4 47.3467 7.13051 47.3467 11C47.3467 14.8694 50.4772 18 54.3467 18C55.98 18 57.4772 17.4361 58.6633 16.5027C57.0495 15.2388 55.9995 13.2361 55.9995 11Z" fill="#EB001B"/>
<path d="M69.9992 11C69.9992 14.8694 66.8687 18 62.9992 18C61.3659 18 59.8687 17.4361 58.6826 16.5027C60.3159 15.2195 61.3465 13.2361 61.3465 11C61.3465 8.76392 60.2965 6.78055 58.6826 5.49718C59.8686 4.56387 61.3659 4 62.9992 4C66.8687 4 69.9992 7.15 69.9992 11Z" fill="#F79E1B"/>
<defs>
<linearGradient id="paint0_linear_144_24290" x1="1428.07" y1="36.06" x2="1457.01" y2="-990.955" gradientUnits="userSpaceOnUse">
<stop stop-color="#222357"/>
<stop offset="1" stop-color="#254AA5"/>
</linearGradient>
</defs>
</svg>
