<svg width="256" height="255" viewBox="0 0 256 255" fill="none" xmlns="http://www.w3.org/2000/svg">
<path d="M128 248.182C191.261 248.182 242.545 196.593 242.545 132.955C242.545 69.3165 191.261 17.7275 128 17.7275C64.7378 17.7275 13.4541 69.3165 13.4541 132.955C13.4541 196.593 64.7378 248.182 128 248.182Z" fill="#50CD89" fill-opacity="0.2"/>
<path d="M50.9541 79.0912C50.9541 70.0538 58.2804 62.7275 67.3177 62.7275H188.681C197.719 62.7275 205.045 70.0538 205.045 79.0912V255H50.9541V79.0912Z" fill="#101010"/>
<path d="M128 173.4C150.533 173.4 168.8 155.133 168.8 132.6C168.8 110.067 150.533 91.7998 128 91.7998C105.467 91.7998 87.2002 110.067 87.2002 132.6C87.2002 155.133 105.467 173.4 128 173.4Z" fill="#37C779"/>
<path d="M114.876 134.828L122.376 142.328L141.126 123.578" stroke="#101010" stroke-width="8.18182" stroke-linecap="round" stroke-linejoin="round"/>
<path d="M150.159 186.818H105.841C103.017 186.818 100.728 188.955 100.728 191.591C100.728 194.227 103.017 196.364 105.841 196.364H150.159C152.984 196.364 155.273 194.227 155.273 191.591C155.273 188.955 152.984 186.818 150.159 186.818Z" fill="#224C36"/>
<path d="M165.2 204.546H90.8003C87.9987 204.546 85.7275 206.683 85.7275 209.319C85.7275 211.955 87.9987 214.091 90.8003 214.091H165.2C168.002 214.091 170.273 211.955 170.273 209.319C170.273 206.683 168.002 204.546 165.2 204.546Z" fill="#224C36"/>
</svg>
